<svg width="46" height="46" viewBox="0 0 46 46" fill="none" xmlns="http://www.w3.org/2000/svg">
<path d="M43.1587 10.8283L22.2973 31.7259C20.2199 33.8069 14.0533 34.7707 12.6756 33.3907C11.298 32.0107 12.2383 25.8334 14.3157 23.7524L35.199 2.8328C35.714 2.26996 36.3374 1.81753 37.0319 1.50275C37.7262 1.18797 38.4771 1.01733 39.2392 1.00125C40.0011 0.985194 40.7586 1.12394 41.4655 1.40917C42.1725 1.6944 42.8145 2.12024 43.3527 2.66086C43.8908 3.20149 44.3142 3.84572 44.5969 4.55471C44.8797 5.26372 45.0164 6.02274 44.9982 6.78603C44.9801 7.54933 44.8075 8.30109 44.4915 8.99582C44.1753 9.69055 43.722 10.314 43.1587 10.8283Z" stroke="#59AD8A" stroke-width="2" stroke-linecap="round" stroke-linejoin="round"/>
<path d="M20.6806 5.57031H9.74693C7.42709 5.57031 5.20242 6.49345 3.56204 8.13668C1.92169 9.7799 1 12.0086 1 14.3324V36.2378C1 38.5617 1.92169 40.7904 3.56204 42.4335C5.20242 44.0768 7.42709 44.9999 9.74693 44.9999H33.801C38.6337 44.9999 40.3612 41.057 40.3612 36.2378V25.2851" stroke="#59AD8A" stroke-width="2" stroke-linecap="round" stroke-linejoin="round"/>
</svg>
