<svg width="6" height="23" viewBox="0 0 6 23" fill="none" xmlns="http://www.w3.org/2000/svg">
<path d="M0.255859 20.2501C0.255859 19.8889 0.32699 19.5313 0.46519 19.1977C0.603391 18.8641 0.805955 18.5609 1.06132 18.3055C1.31668 18.0502 1.61983 17.8476 1.95348 17.7094C2.28713 17.5712 2.64472 17.5001 3.00586 17.5001C3.36699 17.5001 3.72459 17.5712 4.05824 17.7094C4.39189 17.8476 4.69504 18.0502 4.9504 18.3055C5.20576 18.5609 5.40833 18.8641 5.54653 19.1977C5.68473 19.5313 5.75586 19.8889 5.75586 20.2501C5.75586 20.9794 5.46613 21.6789 4.9504 22.1946C4.43468 22.7103 3.7352 23.0001 3.00586 23.0001C2.27651 23.0001 1.57704 22.7103 1.06132 22.1946C0.545591 21.6789 0.255859 20.9794 0.255859 20.2501V20.2501ZM0.52536 3.73633C0.488738 3.38939 0.525466 3.03863 0.63316 2.7068C0.740854 2.37498 0.917108 2.0695 1.15049 1.81019C1.38386 1.55088 1.66915 1.34354 1.98784 1.2016C2.30653 1.05967 2.6515 0.986328 3.00036 0.986328C3.34922 0.986328 3.69419 1.05967 4.01288 1.2016C4.33157 1.34354 4.61685 1.55088 4.85023 1.81019C5.08361 2.0695 5.25987 2.37498 5.36756 2.7068C5.47525 3.03863 5.51198 3.38939 5.47536 3.73633L4.51286 13.3806C4.48052 13.7594 4.30717 14.1124 4.02709 14.3696C3.74701 14.6268 3.38061 14.7695 3.00036 14.7695C2.62011 14.7695 2.25371 14.6268 1.97363 14.3696C1.69355 14.1124 1.5202 13.7594 1.48786 13.3806L0.52536 3.73633Z" fill="#59AD8A"/>
</svg>
