<svg width="32" height="44" viewBox="0 0 32 44" fill="none" xmlns="http://www.w3.org/2000/svg">
<path d="M8.375 20.35H23.5663V23.7875H8.375V20.35ZM8.375 26.84H23.5663V30.2775H8.375V26.84ZM8.375 13.75H23.5663V17.1875H8.375V13.75Z" fill="#59AD8A"/>
<path d="M25.6462 2.75L20.7365 0.77L16.231 2.75L11.4079 0.77L6.87365 2.75L0 0V44L6.87365 41.25L11.4079 43.1475L16.231 41.25L20.7365 43.1475L25.6462 41.25L32 44V0L25.6462 2.75ZM28.361 38.8025L25.704 37.675L20.8231 39.5725L16.2888 37.5925L11.4368 39.49L6.96029 37.5925L3.63899 38.885V5.115L6.96029 6.4075L11.4368 4.51L16.2888 6.4075L20.8231 4.51L25.704 6.4075L28.361 5.28V38.8025Z" fill="#59AD8A"/>
</svg>
