<svg width="41" height="41" viewBox="0 0 41 41" fill="none" xmlns="http://www.w3.org/2000/svg">
<path fill-rule="evenodd" clip-rule="evenodd" d="M17.2501 31.3363C9.18892 31.3363 2.65417 24.9153 2.65417 16.9819C2.65417 9.04847 9.18892 2.61462 17.2501 2.61462C25.3112 2.61462 31.8473 9.04847 31.8473 16.9819C31.8473 24.9153 25.3112 31.3363 17.2501 31.3363ZM40.6107 38.77L30.0261 28.3502C32.7969 25.3383 34.5002 21.3652 34.5002 16.9819C34.5002 7.6002 26.7773 0 17.2501 0C7.7228 0 0 7.6002 0 16.9819C0 26.3508 7.7228 33.951 17.2501 33.951C21.3665 33.951 25.1421 32.5284 28.1076 30.1573L38.7345 40.6155C39.2535 41.1282 40.093 41.1282 40.6107 40.6155C41.1298 40.1157 41.1298 39.2827 40.6107 38.77Z" fill="#59AD8A"/>
</svg>
