<svg width="44" height="44" viewBox="0 0 44 44" fill="none" xmlns="http://www.w3.org/2000/svg">
<path fill-rule="evenodd" clip-rule="evenodd" d="M21.9825 14.3047C17.5059 14.3047 13.877 17.7406 13.877 21.9791C13.877 26.2176 17.5059 29.6535 21.9825 29.6535C26.4591 29.6535 30.088 26.2176 30.088 21.9791C30.088 17.7406 26.4591 14.3047 21.9825 14.3047ZM17.1192 21.9791C17.1192 19.4361 19.2966 17.3745 21.9825 17.3745C24.6683 17.3745 26.8458 19.4361 26.8458 21.9791C26.8458 24.5221 24.6683 26.5838 21.9825 26.5838C19.2966 26.5838 17.1192 24.5221 17.1192 21.9791Z" fill="#59AD8A"/>
<path fill-rule="evenodd" clip-rule="evenodd" d="M21.9453 8.69314e-07C20.9847 -1.95958e-05 20.1826 -1.96924e-05 19.5242 0.0425068C18.8388 0.0867933 18.1915 0.182243 17.5638 0.428397C16.1073 0.999599 14.9502 2.0952 14.3469 3.4742C14.0328 4.19212 13.9478 4.94871 13.9153 5.77108C13.8892 6.43217 13.5368 6.98374 13.0168 7.268C12.4968 7.55226 11.8161 7.5654 11.1984 7.25628C10.4299 6.87172 9.69533 6.56314 8.88162 6.46172C7.31866 6.26689 5.73795 6.66792 4.48725 7.57658C3.94827 7.96816 3.53724 8.45128 3.15406 8.99115C2.78593 9.50975 2.38496 10.1674 1.90461 10.9551L1.85004 11.0446C1.36967 11.8324 0.968674 12.4899 0.678367 13.0511C0.376171 13.6352 0.13977 14.2138 0.0510843 14.8516C-0.154688 16.3314 0.268875 17.828 1.22855 19.0123C1.72811 19.6285 2.37752 20.0767 3.11338 20.5144C3.70515 20.8664 4.03354 21.4313 4.0335 22C4.03347 22.5685 3.70508 23.1334 3.11338 23.4854C2.37744 23.9231 1.72796 24.3713 1.22835 24.9877C0.268658 26.1718 -0.154883 27.6684 0.0508681 29.1483C0.139553 29.786 0.375954 30.3647 0.67815 30.9488C0.968458 31.5099 1.36946 32.1675 1.8498 32.9552L1.9044 33.0448C2.38474 33.8325 2.78572 34.4901 3.15384 35.0087C3.53703 35.5485 3.94805 36.0317 4.48704 36.4232C5.73773 37.3319 7.31844 37.733 8.88141 37.5381C9.69507 37.4366 10.4296 37.1282 11.198 36.7437C11.8158 36.4345 12.4966 36.4476 13.0167 36.732C13.5368 37.0163 13.8892 37.5678 13.9153 38.229C13.9478 39.0513 14.0329 39.8079 14.3469 40.5258C14.9502 41.9048 16.1073 43.0005 17.5638 43.5717C18.1915 43.8179 18.8388 43.9132 19.5242 43.9574C20.1826 44 20.9847 44 21.9453 44H22.0545C23.0152 44 23.8171 44 24.4757 43.9574C25.1611 43.9132 25.8085 43.8179 26.4362 43.5717C27.8926 43.0005 29.0499 41.9048 29.6531 40.5258C29.9672 39.8079 30.0521 39.0513 30.0846 38.2288C30.1107 37.5678 30.463 37.0163 30.9831 36.7318C31.5031 36.4476 32.184 36.4345 32.8017 36.7435C33.5702 37.128 34.3046 37.4366 35.1184 37.5379C36.6814 37.7328 38.2621 37.3319 39.5127 36.4232C40.0518 36.0315 40.4627 35.5485 40.8459 35.0087C41.214 34.4901 41.615 33.8325 42.0952 33.0448L42.1499 32.9552C42.6302 32.1675 43.0314 31.5097 43.3217 30.9486C43.6238 30.3645 43.8601 29.786 43.9489 29.1483C44.1547 27.6682 43.731 26.1716 42.7713 24.9875C42.2718 24.3711 41.6223 23.9231 40.8865 23.4854C40.2947 23.1334 39.9664 22.5685 39.9664 21.9998C39.9664 21.4313 40.2947 20.8666 40.8863 20.5146C41.6225 20.0769 42.272 19.6289 42.7716 19.0123C43.7313 17.8282 44.1549 16.3316 43.9491 14.8517C43.8603 14.214 43.624 13.6354 43.3219 13.0512C43.0316 12.4901 42.6306 11.8326 42.1501 11.0449L42.0957 10.9553C41.6152 10.1676 41.2142 9.50989 40.8461 8.99129C40.4629 8.45142 40.052 7.9683 39.5129 7.5767C38.2623 6.66807 36.6816 6.26703 35.1184 6.46186C34.3048 6.56329 33.5704 6.87182 32.802 7.25636C32.1842 7.56552 31.5033 7.55237 30.9833 7.26806C30.4632 6.98378 30.1107 6.43213 30.0846 5.77098C30.0521 4.94863 29.9672 4.19208 29.6531 3.4742C29.0499 2.0952 27.8926 0.999599 26.4362 0.428397C25.8085 0.182243 25.1611 0.0867933 24.4757 0.0425068C23.8171 -1.96924e-05 23.0152 -1.95958e-05 22.0545 8.69314e-07H21.9453ZM18.8045 3.26449C18.9713 3.19909 19.2247 3.13878 19.7449 3.10515C20.2799 3.07061 20.9707 3.06977 22 3.06977C23.0293 3.06977 23.7201 3.07061 24.2548 3.10515C24.7753 3.13878 25.0286 3.19909 25.1953 3.26449C25.8574 3.52413 26.3835 4.02213 26.6575 4.64896C26.7442 4.84667 26.8158 5.1549 26.8447 5.88571C26.9087 7.50732 27.7927 9.06869 29.3622 9.92656C30.9314 10.7845 32.8017 10.7286 34.3169 9.97036C34.9998 9.62863 35.3177 9.53331 35.5416 9.50537C36.2521 9.41682 36.9706 9.5991 37.5391 10.0121C37.6824 10.1162 37.8641 10.2937 38.1551 10.7036C38.4542 11.1249 38.8003 11.6909 39.3149 12.5349C39.8296 13.3789 40.1743 13.9457 40.4101 14.4016C40.6395 14.845 40.711 15.0829 40.7346 15.2524C40.8282 15.925 40.6356 16.6053 40.1994 17.1436C40.0617 17.3134 39.8157 17.5263 39.1615 17.9154C37.7105 18.7788 36.7244 20.2842 36.7242 21.9998C36.7242 23.7156 37.7102 25.2212 39.1615 26.0846C39.8155 26.4737 40.0615 26.6865 40.1992 26.8564C40.6354 27.3946 40.828 28.0749 40.7344 28.7476C40.7108 28.917 40.6393 29.1548 40.4099 29.5983C40.1741 30.054 39.8294 30.6209 39.3147 31.4649C38.8001 32.3089 38.454 32.875 38.1549 33.2963C37.8639 33.706 37.6821 33.8837 37.5388 33.9876C36.9704 34.4008 36.2519 34.583 35.5414 34.4946C35.3175 34.4665 34.9995 34.3712 34.3167 34.0296C32.8015 33.2712 30.9312 33.2155 29.3618 34.0734C27.7927 34.9313 26.9087 36.4926 26.8447 38.1142C26.8158 38.845 26.7442 39.1532 26.6575 39.3511C26.3835 39.9778 25.8574 40.4759 25.1953 40.7356C25.0286 40.8009 24.7753 40.8613 24.2548 40.8948C23.7201 40.9294 23.0293 40.9302 22 40.9302C20.9707 40.9302 20.2799 40.9294 19.7449 40.8948C19.2247 40.8613 18.9713 40.8009 18.8045 40.7356C18.1426 40.4759 17.6165 39.9778 17.3423 39.3511C17.2558 39.1532 17.1841 38.845 17.1552 38.1142C17.0912 36.4928 16.2072 34.9313 14.6378 34.0734C13.0684 33.2155 11.1983 33.2714 9.68299 34.0296C9.00011 34.3714 8.68233 34.4667 8.45823 34.4946C7.74778 34.5832 7.02928 34.4008 6.46079 33.9879C6.31757 33.8839 6.13573 33.7063 5.84481 33.2963C5.54577 32.8752 5.19961 32.3091 4.68497 31.4651C4.1703 30.6211 3.82567 30.0543 3.58983 29.5985C3.36041 29.155 3.28891 28.917 3.26535 28.7476C3.17182 28.0749 3.36435 27.3946 3.80058 26.8564C3.93818 26.6867 4.18426 26.4737 4.8383 26.0846C6.28947 25.2214 7.27562 23.7158 7.27571 22.0002C7.27582 20.2842 6.28962 18.7786 4.83832 17.9152C4.18443 17.5261 3.93837 17.3132 3.80077 17.1434C3.36456 16.6052 3.17204 15.9249 3.26557 15.2522C3.28913 15.0828 3.36063 14.8449 3.59005 14.4014C3.82589 13.9456 4.17051 13.3787 4.68516 12.5347C5.19983 11.6908 5.54597 11.1248 5.84503 10.7034C6.13594 10.2936 6.31779 10.116 6.46098 10.012C7.0295 9.59896 7.74799 9.41668 8.45843 9.50523C8.68255 9.53316 9.00035 9.62849 9.68331 9.97028C11.1985 10.7285 13.0686 10.7843 14.6379 9.9265C16.2072 9.06867 17.0912 7.50736 17.1552 5.88581C17.1841 5.15494 17.2558 4.84669 17.3423 4.64896C17.6165 4.02213 18.1426 3.52413 18.8045 3.26449Z" fill="#59AD8A"/>
</svg>
