<svg width="37" height="37" viewBox="0 0 37 37" fill="none" xmlns="http://www.w3.org/2000/svg">
<path d="M11.0518 21.1123C13.6224 21.1123 15.7058 23.2124 15.7061 25.8047V32.0654C15.7059 34.6561 13.6225 36.7588 11.0518 36.7588H4.84473C2.27399 36.7588 0.190574 34.6561 0.19043 32.0654V25.8047C0.190667 23.2124 2.27405 21.1123 4.84473 21.1123H11.0518ZM32.2031 21.1123C34.7737 21.1124 36.8562 23.2124 36.8564 25.8047V32.0654C36.8563 34.656 34.7738 36.7587 32.2031 36.7588H25.9951C23.4245 36.7587 21.3419 34.656 21.3418 32.0654V25.8047C21.342 23.2124 23.4245 21.1124 25.9951 21.1123H32.2031ZM11.0518 0.0917969C13.6226 0.0917969 15.7061 2.19262 15.7061 4.78516V11.0449C15.7061 13.6375 13.6226 15.7383 11.0518 15.7383H4.84473C2.2739 15.7383 0.19043 13.6375 0.19043 11.0449V4.78516C0.19043 2.19262 2.2739 0.0917969 4.84473 0.0917969H11.0518ZM32.2021 0.0917969C34.773 0.0917969 36.8564 2.19262 36.8564 4.78516V11.0449C36.8564 13.6375 34.773 15.7383 32.2021 15.7383H25.9951C23.4243 15.7383 21.3408 13.6375 21.3408 11.0449V4.78516C21.3408 2.19262 23.4243 0.0917969 25.9951 0.0917969H32.2021Z" fill="#59AD8A"/>
</svg>
