<svg width="44" height="40" viewBox="0 0 44 40" fill="none" xmlns="http://www.w3.org/2000/svg">
<path fill-rule="evenodd" clip-rule="evenodd" d="M30.25 3.5C30.25 2.77065 30.5397 2.07118 31.0555 1.55546C31.5712 1.03973 32.2707 0.75 33 0.75H38.5C39.2293 0.75 39.9288 1.03973 40.4445 1.55546C40.9603 2.07118 41.25 2.77065 41.25 3.5V36.5H42.625C42.9897 36.5 43.3394 36.6449 43.5973 36.9027C43.8551 37.1606 44 37.5103 44 37.875C44 38.2397 43.8551 38.5894 43.5973 38.8473C43.3394 39.1051 42.9897 39.25 42.625 39.25H1.375C1.01033 39.25 0.660591 39.1051 0.402728 38.8473C0.144866 38.5894 0 38.2397 0 37.875C0 37.5103 0.144866 37.1606 0.402728 36.9027C0.660591 36.6449 1.01033 36.5 1.375 36.5H2.75V28.25C2.75 27.5207 3.03973 26.8212 3.55546 26.3055C4.07118 25.7897 4.77065 25.5 5.5 25.5H11C11.7293 25.5 12.4288 25.7897 12.9445 26.3055C13.4603 26.8212 13.75 27.5207 13.75 28.25V36.5H16.5V17.25C16.5 16.5207 16.7897 15.8212 17.3055 15.3055C17.8212 14.7897 18.5207 14.5 19.25 14.5H24.75C25.4793 14.5 26.1788 14.7897 26.6945 15.3055C27.2103 15.8212 27.5 16.5207 27.5 17.25V36.5H30.25V3.5Z" fill="#59AD8A"/>
</svg>
