<svg width="55" height="48" viewBox="0 0 55 48" fill="none" xmlns="http://www.w3.org/2000/svg">
<path d="M53.8863 0H1.11578C0.496582 0 0 0.498626 0 1.10965V46.7788C0 47.3878 0.496582 47.8946 1.11578 47.8946H53.8863C54.5014 47.8946 55 47.3878 55 46.7788V1.10965C55 0.498626 54.5014 0 53.8863 0ZM20.7032 10.0726C20.7032 13.3505 18.0506 15.9907 14.7871 15.9907C11.5133 15.9907 8.86899 13.3505 8.86899 10.0726C8.86899 6.80297 11.5154 4.15453 14.7871 4.15453C18.0506 4.15249 20.7032 6.80297 20.7032 10.0726ZM50.5859 42.1747H46.8912V45.9512H43.6767V42.1747H39.937V38.9623H43.6767V35.3063H46.8912V38.9623H50.5859V42.1747ZM51.3012 34.1027H7.72256H4.23218V33.649L13.5324 23.0185L18.77 26.5518L24.87 16.0929L31.9652 21.1201L38.3594 7.84109L51.3788 33.6163V34.1027H51.3012Z" fill="#59AD8A"/>
</svg>
